<svg id="Capa_1" data-name="Capa 1" xmlns="http://www.w3.org/2000/svg" viewBox="0 0 290.94 399.87"><defs><style>.cls-1{fill:#ff0080;}.cls-2{fill:#511080;}.cls-3{fill:#d8d8d8;}.cls-4{fill:#f1edf0;}.cls-5{fill:#a7a9ac;}</style></defs><title>icono calculadora precios</title><g id="calculator"><path class="cls-1" d="M1108.72,300.48H890.52a36.48,36.48,0,0,0-36.37,36.37v81.82h290.94V336.85A36.48,36.48,0,0,0,1108.72,300.48Z" transform="translate(-854.15 -300.48)"/><path class="cls-2" d="M854.15,664a36.47,36.47,0,0,0,36.37,36.37h218.2A36.47,36.47,0,0,0,1145.09,664V418.67H854.15Z" transform="translate(-854.15 -300.48)"/><path class="cls-3" d="M1108.72,402.34H890.52c-5.45,0-9.09-3.63-9.09-9.09V333.36c0-5.46,3.64-9.09,9.09-9.09h218.2c5.45,0,9.1,3.63,9.1,9.09v59.89C1117.82,398.71,1114.17,402.34,1108.72,402.34Z" transform="translate(-854.15 -300.48)"/><path class="cls-1" d="M1108.72,473.22h-27.28c-5.45,0-9.09-3.63-9.09-9.09V446c0-5.45,3.64-9.09,9.09-9.09h27.28c5.45,0,9.1,3.64,9.1,9.09v18.18C1117.82,469.59,1114.17,473.22,1108.72,473.22Z" transform="translate(-854.15 -300.48)"/><path class="cls-4" d="M917.8,473.22H890.52c-5.45,0-9.09-3.63-9.09-9.09V446c0-5.45,3.64-9.09,9.09-9.09H917.8c5.45,0,9.09,3.64,9.09,9.09v18.18C926.89,469.59,923.25,473.22,917.8,473.22Z" transform="translate(-854.15 -300.48)"/><path class="cls-4" d="M981.43,473.22H954.16c-5.46,0-9.09-3.63-9.09-9.09V446c0-5.45,3.63-9.09,9.09-9.09h27.27c5.46,0,9.09,3.64,9.09,9.09v18.18C990.52,469.59,986.89,473.22,981.43,473.22Z" transform="translate(-854.15 -300.48)"/><path class="cls-4" d="M1045.08,473.22h-27.27c-5.46,0-9.1-3.63-9.1-9.09V446c0-5.45,3.64-9.09,9.1-9.09h27.27c5.46,0,9.09,3.64,9.09,9.09v18.18C1054.17,469.59,1050.54,473.22,1045.08,473.22Z" transform="translate(-854.15 -300.48)"/><path class="cls-4" d="M917.8,523.18H890.52c-5.45,0-9.09-3.63-9.09-9.09V495.91c0-5.45,3.64-9.09,9.09-9.09H917.8c5.45,0,9.09,3.64,9.09,9.09v18.18C926.89,519.55,923.25,523.18,917.8,523.18Z" transform="translate(-854.15 -300.48)"/><path class="cls-4" d="M981.43,523.18H954.16c-5.46,0-9.09-3.63-9.09-9.09V495.91c0-5.45,3.63-9.09,9.09-9.09h27.27c5.46,0,9.09,3.64,9.09,9.09v18.18C990.52,519.55,986.89,523.18,981.43,523.18Z" transform="translate(-854.15 -300.48)"/><path class="cls-4" d="M1045.08,523.18h-27.27c-5.46,0-9.1-3.63-9.1-9.09V495.91c0-5.45,3.64-9.09,9.1-9.09h27.27c5.46,0,9.09,3.64,9.09,9.09v18.18C1054.17,519.55,1050.54,523.18,1045.08,523.18Z" transform="translate(-854.15 -300.48)"/><path class="cls-4" d="M917.8,573.15H890.52c-5.45,0-9.09-3.64-9.09-9.09V545.87c0-5.45,3.64-9.09,9.09-9.09H917.8c5.45,0,9.09,3.64,9.09,9.09v18.19C926.89,569.51,923.25,573.15,917.8,573.15Z" transform="translate(-854.15 -300.48)"/><path class="cls-4" d="M981.43,573.15H954.16c-5.46,0-9.09-3.64-9.09-9.09V545.87c0-5.45,3.63-9.09,9.09-9.09h27.27c5.46,0,9.09,3.64,9.09,9.09v18.19C990.52,569.51,986.89,573.15,981.43,573.15Z" transform="translate(-854.15 -300.48)"/><path class="cls-4" d="M1045.08,573.15h-27.27c-5.46,0-9.1-3.64-9.1-9.09V545.87c0-5.45,3.64-9.09,9.1-9.09h27.27c5.46,0,9.09,3.64,9.09,9.09v18.19C1054.17,569.51,1050.54,573.15,1045.08,573.15Z" transform="translate(-854.15 -300.48)"/><path class="cls-4" d="M917.8,673.08H890.52c-5.45,0-9.09-3.64-9.09-9.1V645.8c0-5.45,3.64-9.09,9.09-9.09H917.8c5.45,0,9.09,3.64,9.09,9.09V664C926.89,669.44,923.25,673.08,917.8,673.08Z" transform="translate(-854.15 -300.48)"/><path class="cls-4" d="M981.43,673.08H954.16c-5.46,0-9.09-3.64-9.09-9.1V645.8c0-5.45,3.63-9.09,9.09-9.09h27.27c5.46,0,9.09,3.64,9.09,9.09V664C990.52,669.44,986.89,673.08,981.43,673.08Z" transform="translate(-854.15 -300.48)"/><path class="cls-4" d="M1045.08,673.08h-27.27c-5.46,0-9.1-3.64-9.1-9.1V645.8c0-5.45,3.64-9.09,9.1-9.09h27.27c5.46,0,9.09,3.64,9.09,9.09V664C1054.17,669.44,1050.54,673.08,1045.08,673.08Z" transform="translate(-854.15 -300.48)"/><path class="cls-5" d="M1108.72,523.18h-27.28c-5.45,0-9.09-3.63-9.09-9.09V495.91c0-5.45,3.64-9.09,9.09-9.09h27.28c5.45,0,9.1,3.64,9.1,9.09v18.18C1117.82,519.55,1114.17,523.18,1108.72,523.18Z" transform="translate(-854.15 -300.48)"/><path class="cls-5" d="M1108.72,573.15h-27.28c-5.45,0-9.09-3.64-9.09-9.09V545.87c0-5.45,3.64-9.09,9.09-9.09h27.28c5.45,0,9.1,3.64,9.1,9.09v18.19C1117.82,569.51,1114.17,573.15,1108.72,573.15Z" transform="translate(-854.15 -300.48)"/><path class="cls-4" d="M917.8,623.11H890.52c-5.45,0-9.09-3.63-9.09-9.09V595.84c0-5.46,3.64-9.09,9.09-9.09H917.8c5.45,0,9.09,3.63,9.09,9.09V614C926.89,619.48,923.25,623.11,917.8,623.11Z" transform="translate(-854.15 -300.48)"/><path class="cls-4" d="M981.43,623.11H954.16c-5.46,0-9.09-3.63-9.09-9.09V595.84c0-5.46,3.63-9.09,9.09-9.09h27.27c5.46,0,9.09,3.63,9.09,9.09V614C990.52,619.48,986.89,623.11,981.43,623.11Z" transform="translate(-854.15 -300.48)"/><path class="cls-4" d="M1045.08,623.11h-27.27c-5.46,0-9.1-3.63-9.1-9.09V595.84c0-5.46,3.64-9.09,9.1-9.09h27.27c5.46,0,9.09,3.63,9.09,9.09V614C1054.17,619.48,1050.54,623.11,1045.08,623.11Z" transform="translate(-854.15 -300.48)"/><path class="cls-5" d="M1108.72,623.11h-27.28c-5.45,0-9.09-3.63-9.09-9.09V595.84c0-5.46,3.64-9.09,9.09-9.09h27.28c5.45,0,9.1,3.63,9.1,9.09V614C1117.82,619.48,1114.17,623.11,1108.72,623.11Z" transform="translate(-854.15 -300.48)"/><path class="cls-5" d="M1108.72,673.08h-27.28c-5.45,0-9.09-3.64-9.09-9.1V645.8c0-5.45,3.64-9.09,9.09-9.09h27.28c5.45,0,9.1,3.64,9.1,9.09V664C1117.82,669.44,1114.17,673.08,1108.72,673.08Z" transform="translate(-854.15 -300.48)"/></g></svg>