<?xml version="1.0" encoding="UTF-8"?>
<!DOCTYPE svg PUBLIC "-//W3C//DTD SVG 1.1//EN" "http://www.w3.org/Graphics/SVG/1.1/DTD/svg11.dtd">
<!-- Creator: CorelDRAW 2019 (64-Bit Versión de evaluación) -->
<svg xmlns="http://www.w3.org/2000/svg" xml:space="preserve" width="881.944mm" height="246.944mm" version="1.1" style="shape-rendering:geometricPrecision; text-rendering:geometricPrecision; image-rendering:optimizeQuality; fill-rule:evenodd; clip-rule:evenodd"
viewBox="0 0 88194.4 24694.4"
 xmlns:xlink="http://www.w3.org/1999/xlink"
 xmlns:xodm="http://www.corel.com/coreldraw/odm/2003">
 <defs>
  <style type="text/css">
   <![CDATA[
    .fil0 {fill:#E5E5E5;fill-rule:nonzero}
    .fil1 {fill:white;fill-rule:nonzero;fill-opacity:0.400000}
   ]]>
  </style>
 </defs>
 <g id="Capa_x0020_1">
  <metadata id="CorelCorpID_0Corel-Layer"/>
  <polygon class="fil0" points="-5.67,5.67 88188.74,5.67 88188.74,24700.09 -5.67,24700.09 "/>
  <path class="fil1" d="M3653.7 189.82c1105.1,0 2000.95,895.85 2000.95,2000.95 0,1105.1 -895.85,2000.96 -2000.95,2000.96 -1105.1,0 -2000.96,-895.86 -2000.96,-2000.96 0,-1105.1 895.86,-2000.95 2000.96,-2000.95z"/>
  <path class="fil1" d="M31043 274.48c1105.1,0 2000.96,895.86 2000.96,2000.96 0,1105.1 -895.86,2000.95 -2000.96,2000.95 -1105.09,0 -2000.95,-895.85 -2000.95,-2000.95 0,-1105.1 895.86,-2000.96 2000.95,-2000.96z"/>
  <path class="fil1" d="M17037.02 7156.12c1105.1,0 2000.95,895.86 2000.95,2000.95 0,1105.1 -895.85,2000.96 -2000.95,2000.96 -1105.1,0 -2000.95,-895.86 -2000.95,-2000.96 0,-1105.09 895.85,-2000.95 2000.95,-2000.95z"/>
  <path class="fil1" d="M52788.91 274.48c1105.1,0 2000.96,895.86 2000.96,2000.96 0,1105.1 -895.86,2000.95 -2000.96,2000.95 -1105.1,0 -2000.95,-895.85 -2000.95,-2000.95 0,-1105.1 895.85,-2000.96 2000.95,-2000.96z"/>
  <path class="fil1" d="M42626.81 6734.9c1105.09,0 2000.95,895.86 2000.95,2000.96 0,1105.1 -895.86,2000.95 -2000.95,2000.95 -1105.09,0 -2000.95,-895.85 -2000.95,-2000.95 0,-1105.1 895.86,-2000.96 2000.95,-2000.96z"/>
  <path class="fil1" d="M73639.48 221.92c1105.1,0 2000.95,895.86 2000.95,2000.95 0,1105.1 -895.85,2000.96 -2000.95,2000.96 -1105.1,0 -2000.95,-895.86 -2000.95,-2000.96 0,-1105.09 895.85,-2000.95 2000.95,-2000.95z"/>
  <path class="fil1" d="M64214.68 6471.38c1105.09,0 2000.95,895.86 2000.95,2000.95 0,1105.1 -895.86,2000.96 -2000.95,2000.96 -1105.1,0 -2000.96,-895.86 -2000.96,-2000.96 0,-1105.09 895.86,-2000.95 2000.96,-2000.95z"/>
  <path class="fil1" d="M3821.27 15649.23c1105.09,0 2000.95,895.86 2000.95,2000.96 0,1105.1 -895.86,2000.96 -2000.95,2000.96 -1105.1,0 -2000.96,-895.86 -2000.96,-2000.96 0,-1105.1 895.86,-2000.96 2000.96,-2000.96z"/>
  <path class="fil1" d="M31043 15438.63c1105.1,0 2000.96,895.85 2000.96,2000.95 0,1105.1 -895.86,2000.96 -2000.96,2000.96 -1105.09,0 -2000.95,-895.86 -2000.95,-2000.96 0,-1105.1 895.86,-2000.95 2000.95,-2000.95z"/>
  <path class="fil1" d="M53104.65 15438.63c1105.09,0 2000.95,895.85 2000.95,2000.95 0,1105.1 -895.86,2000.96 -2000.95,2000.96 -1105.1,0 -2000.96,-895.86 -2000.96,-2000.96 0,-1105.1 895.86,-2000.95 2000.96,-2000.95z"/>
  <path class="fil1" d="M73692.04 15702.15c1105.1,0 2000.96,895.86 2000.96,2000.96 0,1105.09 -895.86,2000.95 -2000.96,2000.95 -1105.1,0 -2000.95,-895.86 -2000.95,-2000.95 0,-1105.1 895.85,-2000.96 2000.95,-2000.96z"/>
  <path class="fil1" d="M17511.15 22704.79c1103.21,0 1997.84,892.81 2000.89,1995.3l-4001.77 0c3.05,-1102.49 897.67,-1995.3 2000.88,-1995.3z"/>
  <path class="fil1" d="M42759.46 22663.87c1105.08,0 2000.94,895.85 2000.94,2000.94 0,11.79 -0.23,23.54 -0.44,35.28l-4001.02 0c-0.21,-11.74 -0.44,-23.49 -0.44,-35.28 0,-1105.09 895.86,-2000.94 2000.96,-2000.94z"/>
  <path class="fil1" d="M64583.68 22665.63c1105.1,0 2000.96,895.85 2000.96,2000.95 0,11.2 -0.23,22.35 -0.42,33.51l-4001.07 0c-0.19,-11.16 -0.42,-22.31 -0.42,-33.51 0,-1105.1 895.86,-2000.95 2000.95,-2000.95z"/>
  <path class="fil1" d="M88176.74 10100.76c4.01,0 7.99,0.12 12,0.15l0 4001.6c-4.01,0.03 -7.99,0.15 -12,0.15 -1105.1,0 -2000.95,-895.85 -2000.95,-2000.95 0,-1105.1 895.85,-2000.95 2000.95,-2000.95z"/>
 </g>
</svg>
