<?xml version="1.0" encoding="UTF-8"?>
<!DOCTYPE svg PUBLIC "-//W3C//DTD SVG 1.1//EN" "http://www.w3.org/Graphics/SVG/1.1/DTD/svg11.dtd">
<!-- Creator: CorelDRAW 2019 (64-Bit) -->
<svg xmlns="http://www.w3.org/2000/svg" xml:space="preserve" width="158.07mm" height="180.76mm" version="1.1" style="shape-rendering:geometricPrecision; text-rendering:geometricPrecision; image-rendering:optimizeQuality; fill-rule:evenodd; clip-rule:evenodd"
viewBox="0 0 15807 18076"
 xmlns:xlink="http://www.w3.org/1999/xlink">
 <defs>
  <style type="text/css">
   <![CDATA[
    .fil0 {fill:none}
    .fil4 {fill:#7BABF7}
    .fil5 {fill:#AB0056}
    .fil1 {fill:#FF0080}
    .fil3 {fill:#FF4AA5}
    .fil6 {fill:white;fill-rule:nonzero}
    .fil2 {fill:black;fill-opacity:0.074510}
   ]]>
  </style>
 </defs>
 <g id="Capa_x0020_1">
  <metadata id="CorelCorpID_0Corel-Layer"/>
  <rect class="fil0" x="-4.37" y="4.4" width="15807" height="18076"/>
  <path class="fil1" d="M1337.59 5097.19l12735.33 0c302.54,0 547.9,281.1 547.9,627.73l0 10593.56c0,346.63 -245.36,627.74 -547.9,627.74l-12735.33 0c-302.53,0 -547.89,-281.11 -547.89,-627.74l0 -10593.56c0,-346.63 245.36,-627.73 547.9,-627.73z"/>
  <path class="fil2" d="M13913.07 5008.16l-12430.92 0c-385.08,0 -684.73,3414.43 -684.73,3855.61l6807.56 8082.45 6308.09 0c386.26,-1.21 699.11,-359.65 700.17,-802.2l0 -10333.82c-1.14,-442.48 -313.97,-800.83 -700.17,-802.04z"/>
  <path class="fil3" d="M7904.06 7081.49l-4.48 0 0 -5942.38 3360.02 0 591.57 5940.86 2.38 0c0,1249.55 -884.13,2262.52 -1974.76,2262.52 -1090.18,0 -1974.01,-1012.15 -1974.73,-2261zm-3949.55 -1.52c0,1249.55 -884.13,2262.52 -1974.76,2262.52 -1090.19,0 -1974.01,-1012.15 -1974.73,-2261l-9.39 0 1177.65 -4795.84 4.91 -20.25c125.28,-657.31 633.07,-1126.04 1220.29,-1126.46l2141.07 0 -592.02 5941.03 6.98 0z"/>
  <path class="fil4" d="M1178.34 2265.56l-4.91 20.26c1.19,-7.15 3.57,-13.79 4.91,-20.26z"/>
  <path class="fil5" d="M15802.63 7079.97l-0.02 1.46 0.02 0.06 -0.02 0c-0.72,1248.85 -884.56,2261 -1974.74,2261 -1090.18,0 -1974.03,-1012.15 -1974.75,-2261l-2.24 0 -591.28 -5942.55 2140.92 0c587.23,0.42 1095.01,469.15 1220.29,1126.46l4.91 20.25 1176.54 4794.32 0.37 0zm-11854.81 1.52l6.71 0c0.72,1248.85 884.56,2261 1974.74,2261 1090.63,0 1974.77,-1012.97 1974.77,-2262.52l-4.46 0 0 -5940.86 -3360.03 0 -591.73 5942.38z"/>
  <path class="fil6" d="M13827.94 13680.8c-6.98,-94.16 -18.57,-180.14 -35.06,-289.92l-2154.15 0c0,301.67 0,630.86 -1.19,932.68l1247.92 0c-53.51,284.03 -218.07,535.29 -456.82,697.54 -238.75,162.25 0,-5.21 -0.89,-5.35 -152.55,100.16 -325.08,167.76 -505.12,197.33 -87.83,15.92 -177.47,24.27 -266.94,24.27 -93.81,0 -187.62,-9.07 -279.61,-26.66 -183,-37.86 -356.85,-113.29 -509.7,-221.11 -225.7,-160.25 -400,-383.45 -501.04,-641.25 -7.73,-20.08 -14.86,-40.31 -22.14,-60.83l0 -2.24 1.93 -1.49c-48.77,-143.27 -73.9,-294.43 -73.9,-446.09 0,-150.99 24.79,-301.14 73.04,-444.02 68.74,-202.18 182.24,-387.15 331.53,-539.95 350.41,-362.95 873.97,-499.46 1356.66,-353.74 185.02,56.85 354.22,156.63 493.62,290.94l421.03 -421.57c74.28,-75.12 151.38,-147.86 222.84,-225.51 -213.26,-199.12 -464.54,-354.98 -737.56,-457.25 -253.02,-91.69 -520.82,-139.02 -790.32,-139.02 -255.62,0 -510.4,42.8 -752.15,125.57 -17.43,5.95 -34.77,12.15 -52,18.59 -539.67,203.17 -984.65,602.22 -1245.27,1117.38 -91.75,182.11 -159.01,376.67 -199.15,576.77 -238.47,1186.63 484.65,2354.66 1652.16,2668.62 381.65,102.34 787.38,99.82 1172,12.35 349.22,-78.62 672.43,-247.04 937.81,-487.86 276.92,-255.11 475.4,-595.01 579.39,-956.03 67.21,-237.04 101.63,-482.47 101.63,-728.88 0,-70.86 -2.92,-142.7 -8.44,-213.24l-0.11 -0.03z"/>
 </g>
</svg>
