<?xml version="1.0" encoding="UTF-8"?>
<!DOCTYPE svg PUBLIC "-//W3C//DTD SVG 1.1//EN" "http://www.w3.org/Graphics/SVG/1.1/DTD/svg11.dtd">
<!-- Creator: CorelDRAW 2019 (64-Bit) -->
<svg xmlns="http://www.w3.org/2000/svg" xml:space="preserve" width="320mm" height="200mm" version="1.1" style="shape-rendering:geometricPrecision; text-rendering:geometricPrecision; image-rendering:optimizeQuality; fill-rule:evenodd; clip-rule:evenodd"
viewBox="0 0 32000 20000"
 xmlns:xlink="http://www.w3.org/1999/xlink"
 xmlns:xodm="http://www.corel.com/coreldraw/odm/2003">
 <defs>
  <style type="text/css">
   <![CDATA[
    .fil2 {fill:black}
    .fil3 {fill:#B7B7B7}
    .fil0 {fill:#E8E8E8}
    .fil1 {fill:white}
   ]]>
  </style>
 </defs>
 <g id="Capa_x0020_1">
  <metadata id="CorelCorpID_0Corel-Layer"/>
  <rect class="fil0" x="-2" y="7.59" width="32000" height="20000"/>
  <rect class="fil1" x="1294.15" y="1855.3" width="5073.44" height="703.77"/>
  <rect class="fil1" x="1294.15" y="12971.28" width="5073.44" height="703.77"/>
  <rect class="fil1" x="1294.15" y="8203.51" width="5073.44" height="703.77"/>
  <rect class="fil1" x="8433.83" y="1855.3" width="5073.44" height="703.77"/>
  <rect class="fil1" x="8433.83" y="12971.28" width="5073.44" height="703.77"/>
  <rect class="fil1" x="15781.47" y="1855.3" width="5073.44" height="703.77"/>
  <rect class="fil1" x="15781.47" y="12971.28" width="5073.44" height="703.77"/>
  <rect class="fil1" x="1294.15" y="3234.61" width="2785.97" height="703.77"/>
  <rect class="fil1" x="1294.15" y="11591.97" width="2785.97" height="703.77"/>
  <rect class="fil1" x="1294.14" y="9582.82" width="5073.45" height="703.77"/>
  <rect class="fil1" x="1294.15" y="5039.45" width="8383.36" height="703.77"/>
  <rect class="fil1" x="1294.15" y="6363.92" width="20167.32" height="703.77"/>
  <rect class="fil1" x="8433.83" y="3234.61" width="2785.97" height="703.77"/>
  <rect class="fil1" x="8433.83" y="11591.97" width="2785.97" height="703.77"/>
  <rect class="fil1" x="15781.47" y="3234.61" width="2785.97" height="703.77"/>
  <rect class="fil1" x="15781.47" y="11591.97" width="2785.97" height="703.77"/>
  <rect class="fil2" x="-2.01" y="16176.28" width="32000.01" height="2900.12"/>
  <rect class="fil1" x="29173" y="9335.93" width="1940.87" height="4790.64"/>
  <path id="Fill-4" class="fil3" d="M25589.99 7148.84c175.22,-68.76 699.1,-281.19 885.56,-347.2l2.48 -0.92c267.19,-94.53 514.73,-182.65 653.16,-250.49 323.61,-159.62 269.67,-743.82 0,-1115.6 -215.42,-531.4 -485.12,-1388.15 -485.12,-1673.03 0,-87.82 49.27,-168.56 93.23,-240.39 36.14,-58.64 68.26,-111.41 68.26,-158.1 -9.66,-28.86 -21.2,-55.87 -33.34,-84.73 -56.12,-131.09 -128.15,-300.54 -128.15,-849.74 0,-818.12 1132.96,-1136.76 1618.06,-1136.76 485.09,0 1618.09,318.64 1618.09,1136.76 0,549.2 -72.03,718.65 -128.15,849.74 -12.17,28.86 -23.68,55.87 -33.37,84.73 0,46.69 32.11,99.46 68.29,158.1 43.95,71.83 93.23,152.57 93.23,240.39 0,284.88 -269.7,1141.63 -485.13,1673.03 -269.66,371.78 -323.6,955.98 0,1115.6 138.44,67.84 385.98,155.96 653.46,250.49l2.19 0.92c186.45,66.01 610.89,358.69 781.74,436.11 101.53,53.21 279.39,125.79 279.39,157.38l0 750.24 -5831.61 0 0 -799.3c0,-62.16 187.55,-119.57 307.73,-197.23z"/>
 </g>
</svg>
