<?xml version="1.0" encoding="UTF-8"?>
<!DOCTYPE svg PUBLIC "-//W3C//DTD SVG 1.1//EN" "http://www.w3.org/Graphics/SVG/1.1/DTD/svg11.dtd">
<!-- Creator: CorelDRAW 2019 (64-Bit) -->
<svg xmlns="http://www.w3.org/2000/svg" xml:space="preserve" width="234.95mm" height="163.54mm" version="1.1" style="shape-rendering:geometricPrecision; text-rendering:geometricPrecision; image-rendering:optimizeQuality; fill-rule:evenodd; clip-rule:evenodd"
viewBox="0 0 23495 16354"
 xmlns:xlink="http://www.w3.org/1999/xlink"
 data-name="Layer 1">
 <defs>
  <style type="text/css">
   <![CDATA[
    .fil0 {fill:#2F2E41}
    .fil4 {fill:#3F3D56}
    .fil3 {fill:#6C63FF}
    .fil6 {fill:#9F616A}
    .fil2 {fill:#E6E6E6}
    .fil1 {fill:#FFB9B9}
    .fil5 {fill:white}
   ]]>
  </style>
 </defs>
 <g id="Capa_x0020_1">
  <metadata id="CorelCorpID_0Corel-Layer"/>
  <path class="fil0" d="M17033.32 2516.48l-1812.46 17.66c-85.19,-419.4 -371.42,-1519.84 -113.65,-1820 23.34,-224.68 212.88,-395.52 438.82,-395.52 8.62,0 17.34,0.27 25.91,0.75l0 0c280.92,-439.73 748.83,-373.71 1065.08,-99.08 318.28,109.82 438.27,304.93 396.31,569.69 235.71,206.32 279.19,457.34 173.38,743.08l-173.39 983.42z"/>
  <path class="fil1" d="M16858.84 3633l-1307.63 -181.06 -261.53 -382.23c360.26,-238.97 487.74,-572.74 321.88,-1025.99l905.29 -20.12c-42.42,403.62 91.06,716.14 462.7,905.29l-120.71 704.11z"/>
  <path class="fil2" d="M15242.05 15427.53l-50 683.55c-0.37,5.23 -0.58,10.57 -0.58,15.86 0,120.16 97.44,217.6 217.6,217.6 4.38,0 8.82,-0.16 13.18,-0.4l351.09 -21.25c58.57,-3.56 104.26,-52.13 104.26,-110.8 0,-9.06 -1.11,-18.12 -3.31,-26.91l-194.89 -779.54 -437.35 21.89z"/>
  <path class="fil2" d="M16378.72 15405.66l-194.89 779.54c-2.2,8.77 -3.31,17.83 -3.31,26.89 0,58.67 45.69,107.24 104.26,110.79l351.1 21.27c4.34,0.23 8.78,0.39 13.16,0.39 120.16,0 217.6,-97.44 217.6,-217.6 0,-5.29 -0.21,-10.63 -0.58,-15.89l-50 -683.55 -437.34 -21.84z"/>
  <polygon class="fil3" points="16838.73,15522.42 16364.92,15474.87 15893.22,10432.71 15714.94,15458.63 15249.44,15441.96 14464.87,8481.3 17462.36,8481.3 "/>
  <circle class="fil1" cx="16114.5" cy="1460.32" r="905.28"/>
  <path class="fil3" d="M17904.95 8642.25l-3661.38 40.23c543.37,-2068.54 868.4,-3990.03 301.76,-5311.01l905.29 -442.58c436.51,455.29 922.64,408.35 1448.46,-40.23l865.05 221.29c-148.16,1732.26 -81.75,3587.52 140.82,5532.3z"/>
  <path class="fil1" d="M13237.7 6509.8l2273.27 905.29 508.25 149.48c16.1,4.71 32.82,7.14 49.61,7.14 80.67,0 151.01,-54.93 170.56,-133.17l0.01 0c3.47,-13.91 5.25,-28.29 5.25,-42.65 0,-69.85 -41.36,-133.08 -105.35,-161.07l-527.74 -161.73 -1589.28 -925.4 331.94 -875.11 -694.05 -372.18 -422.47 1609.4z"/>
  <path class="fil3" d="M13257.82 4860.17c432.51,168.73 776.52,456.71 1046.11,844.93l844.93 -1227.16 -603.52 -1106.46 -1287.52 1488.69z"/>
  <path class="fil0" d="M17134.8 1313.6c-367.43,-94.67 -728.67,-107.67 -1079.84,12.41 -223.69,108.34 -492.33,98.36 -791.08,9.09l0 -903.2 1612.87 43.01 258.05 838.69z"/>
  <path class="fil4" d="M15503.43 5455.02c-147.98,0.13 -267.99,120.14 -268.12,268.13l105.83 2215.42c0.13,147.97 120.14,267.97 268.13,268.1l1210 0.02c147.99,-0.15 267.99,-120.15 268.12,-268.13l105.83 -2215.42c-0.13,-147.98 -120.13,-267.99 -268.12,-268.12l-1421.67 0z"/>
  <path class="fil1" d="M18936.56 6342.44l-1981.46 788.98 -149.49 59.53c-4.76,1.85 -9.53,3.44 -14.55,5.03l-500.86 147.37c-64.03,18.79 -152.66,-67.47 -204.52,-127 -26.41,-29.49 -41.03,-67.76 -41.03,-107.37 0,-37.37 13.03,-73.63 36.8,-102.45 6.9,-7.96 14.54,-15.36 22.74,-21.97 19.29,-14.99 42.07,-25.03 66.15,-29.09l500.33 -98.43c17.92,-3.49 35.22,-9.98 51.06,-19.05l233.36 -136 1211.53 -705.38c50.67,-29.41 81.86,-83.65 81.86,-142.24 0,-19.91 -3.64,-39.71 -10.69,-58.31l-231.25 -609.86c-7.08,-18.63 -10.71,-38.44 -10.71,-58.38 0,-60.55 33.31,-116.21 86.65,-144.82l383.12 -205.32c23.89,-12.81 50.57,-19.53 77.67,-19.53 74.69,0 140,50.48 158.87,122.72l332.58 1266.83c3.57,13.64 5.42,27.77 5.42,41.89 0,67.34 -41.04,127.89 -103.58,152.84l0 0.01z"/>
  <path class="fil3" d="M19051.65 4638.88c-432.51,168.73 -776.52,456.71 -1046.11,844.93l-844.93 -1227.16 603.52 -1146.69 1287.52 1528.92z"/>
  <path class="fil5" d="M16716.97 2266.07c-396.04,164.73 -811.3,158.04 -1243.54,0 125.77,-214.68 -62.23,-382.82 -158.75,-599.54l1613.96 -47.96c-123.42,188.26 -305.54,410.7 -211.67,647.5z"/>
  <polygon class="fil5" points="16911.55,1654.39 16892.82,1635.68 16919.27,1609.23 17077.34,1424.76 17097.44,1441.96 16938.69,1627.16 "/>
  <rect class="fil5" transform="matrix(0.640184 -0.768221 0.768221 0.640184 15187.1 1562.59)" width="26.47" height="206.65"/>
  <rect class="fil5" transform="matrix(0.537 -0.84358 0.84358 0.537 16679.3 2246.46)" width="517.46" height="26.46"/>
  <rect class="fil5" transform="matrix(0.843662 -0.536875 0.536875 0.843662 15210.9 1824.11)" width="26.46" height="517.46"/>
  <path class="fil5" d="M17008.02 6664.58l0 479.33 -166.87 66.45c-5.32,2.07 -10.63,3.84 -16.24,5.61l-559.08 164.51c-71.47,20.97 -170.41,-75.31 -228.3,-141.76 -29.48,-32.93 -45.8,-75.65 -45.8,-119.86 0,-41.71 14.55,-82.19 41.07,-114.36 7.71,-8.89 16.25,-17.16 25.4,-24.53 21.53,-16.73 46.96,-27.94 73.84,-32.47l558.48 -109.86c20.01,-3.9 39.33,-11.12 57.01,-21.26l260.49 -151.8z"/>
  <path class="fil4" d="M17249.84 4954.85l-95.61 0c0,-1352.3 -278.43,-2294.7 -549.77,-2294.7l-23.9 -95.61c243.34,0 398.47,392.22 485.77,721.26 118.33,446.07 183.51,1038.82 183.51,1669.05z"/>
  <path class="fil4" d="M15050.75 4620.21l-95.61 0c0,-1238.49 280.36,-2007.86 693.19,-2007.86l-23.9 95.61c-285.56,0 -573.68,591.29 -573.68,1912.25z"/>
  <circle class="fil4" cx="17202.03" cy="4978.76" r="239.03"/>
  <path class="fil4" d="M14668.3 5193.88l-95.61 0c0,-342.69 193.01,-621.48 430.26,-621.48l0 95.61c-184.53,0.01 -334.65,235.91 -334.65,525.87z"/>
  <path class="fil4" d="M15433.2 5193.88l-95.61 0c0,-289.97 -150.12,-525.87 -334.65,-525.87l0 -95.61c237.25,0 430.26,278.8 430.26,621.48z"/>
  <circle class="fil4" cx="15385.39" cy="5217.79" r="95.61"/>
  <circle class="fil4" cx="14620.49" cy="5217.79" r="95.61"/>
  <path class="fil0" d="M8397.48 2004.63l-1679.2 284.36c-9.41,1.59 -19.01,2.42 -28.58,2.42 -76.34,0 -143.35,-50.92 -163.77,-124.46 -121.32,-437.87 -374.97,-1009.09 -128.7,-1295.84 24.9,-239.92 227.3,-422.36 468.57,-422.36 9.2,0 18.52,0.29 27.66,0.81l0 -0.01c299.98,-469.57 799.63,-399.06 1137.34,-105.8 339.87,117.27 468,325.61 423.19,608.34 146.82,128.52 223.8,273.28 240.03,432.17 1.52,18.01 2.36,36.07 2.36,54.13 0,160.7 -62.1,315.3 -173.12,431.43l-125.78 134.81z"/>
  <path class="fil6" d="M8136.41 3326.62l-1301.76 -76.57c127.58,-292.81 178.54,-574.77 127.62,-842.32l969.94 0c-2.2,205.42 100.03,560.76 204.2,918.89z"/>
  <path class="fil2" d="M6569.45 15355.28l-53.39 729.92c-0.38,5.59 -0.61,11.3 -0.61,16.94 0,128.31 104.05,232.36 232.36,232.36 4.68,0 9.42,-0.17 14.07,-0.42l374.92 -22.71c62.53,-3.79 111.32,-55.65 111.32,-118.3 0,-9.68 -1.19,-19.35 -3.53,-28.74l-208.11 -832.42 -467.03 23.37z"/>
  <path class="fil2" d="M7783.23 15331.93l-208.11 832.42c-2.34,9.37 -3.53,19.04 -3.53,28.72 0,62.65 48.79,114.51 111.33,118.3l374.92 22.71c4.64,0.25 9.38,0.42 14.06,0.42 128.31,0 232.36,-104.05 232.36,-232.36 0,-5.64 -0.23,-11.35 -0.62,-16.96l-53.39 -729.92 -467.02 -23.33z"/>
  <polygon class="fil3" points="8274.43,15456.62 7768.5,15405.84 7264.78,10021.6 7074.42,15388.49 6577.34,15370.68 5739.54,7937.82 8940.39,7937.82 "/>
  <circle class="fil6" cx="7472.83" cy="1750.89" r="966.7"/>
  <path class="fil0" d="M8562.35 1289.08c-392.35,-68.33 -778.11,-77.71 -1153.1,8.96 -238.87,78.2 -525.73,70.99 -844.75,6.56l0 -651.9 1722.28 31.04 275.57 605.34z"/>
  <path class="fil5" d="M8116.18 2526.54c-422.9,175.91 -866.34,168.77 -1327.91,0 134.31,-229.25 -66.45,-408.79 -169.52,-640.21l1723.45 -51.22c-131.79,201.04 -326.27,438.56 -226.02,691.43z"/>
  <rect class="fil5" transform="matrix(0.640179 -0.768226 0.768226 0.640179 6483.14 1774.65)" width="26.47" height="220.65"/>
  <rect class="fil5" transform="matrix(0.537 -0.84358 0.84358 0.537 8076.7 2506.06)" width="552.57" height="26.46"/>
  <rect class="fil5" transform="matrix(0.84366 -0.53687 0.53687 0.84366 6508.66 2054.11)" width="26.46" height="552.57"/>
  <path class="fil3" d="M5634.98 6159.87l-740.22 -459.45 631.28 -1848.88c70.34,-190.6 205.36,-351.08 381.27,-452.87l212.66 -123.12 18.49 1865.17 -503.48 1019.15z"/>
  <path class="fil3" d="M8834.53 7057.82l-109.51 -938.01c-5.85,-495.11 78.38,-973.79 279.23,-1414.85l102.1 -1378.34 -1123.09 -459.44c-3.44,22.89 -6.37,45.76 -9.66,68.64l-526.36 263.18 -513.34 -116.67 2.84 -164.1 -1020.99 459.45c337.64,1569.72 153.48,3199.81 -427.14,5125.22l1345.06 367.79 11.18 -645.86 1198.74 -85.62c12.35,209.54 22.27,415.36 28.03,616.62 676.41,249.03 699.65,244.9 1315.95,-111.66 -245.43,-516.03 -439.76,-1052.99 -553.04,-1586.35z"/>
  <polygon class="fil3" points="10561.25,5930.14 9872.09,5700.42 8769.73,4417.12 9106.34,3326.64 10637.82,5470.71 "/>
  <path class="fil2" d="M8401.41 6923.65c19.89,87.2 97.48,149.11 186.93,149.11 14.14,0 28.3,-1.59 42.08,-4.68l585.01 -132.48 -84.55 -373.41 -585.02 132.46c-87.21,19.76 -149.16,97.29 -149.16,186.73 0,14.21 1.59,28.4 4.72,42.26l-0.01 0.01z"/>
  <path class="fil3" d="M8927.68 6491.69l331.82 612.59c558.12,-155.66 1041.82,-646.4 1505.96,-1225.19l-127.62 -408.4 -791.27 204.2 -918.89 816.8z"/>
  <polygon class="fil2" points="4601.22,4570.12 5238.23,4683.87 6694.26,6754.15 5920.75,6572.15 "/>
  <path class="fil4" d="M4488.24 4544.78c-29.58,0.44 -53.35,24.57 -53.35,54.17 0,10.58 3.1,20.93 8.91,29.77l1361 2064.97c7.58,11.54 19.33,19.74 32.78,22.89l633.23 148.99c4.05,0.95 8.22,1.44 12.39,1.44 29.87,0 54.09,-24.22 54.09,-54.09 0,-11.13 -3.45,-22.01 -9.85,-31.12l-1494.31 -2124.69c-8.17,-11.69 -20.68,-19.66 -34.73,-22.13l-499.95 -89.28c-3.36,-0.61 -6.78,-0.92 -10.2,-0.93l-0.01 0.01z"/>
  <path class="fil2" d="M5337.24 6021.22l37.83 381 596.89 -59.25c97.91,-9.7 172.54,-92.11 172.54,-190.51 0,-105.71 -85.73,-191.44 -191.44,-191.44 -6.31,0 -12.64,0.33 -18.91,0.93l-596.91 59.27z"/>
  <path class="fil3" d="M4818.2 5977.08c1.8,270.4 221.45,488.84 491.83,489.08l98.11 0.01 71.45 -595.46 -591.62 -212.98 -69.77 319.35z"/>
  <polygon class="fil5" points="8295.05,1900.98 8276.34,1882.28 8304.6,1854.02 8473.43,1656.98 8493.51,1674.18 8323.99,1871.96 "/>
  <rect class="fil4" x="-4.23" y="16302.94" width="23495" height="52.92"/>
 </g>
</svg>
