<?xml version="1.0" encoding="UTF-8"?>
<svg width="32px" height="32px" viewBox="0 0 32 32" version="1.1" xmlns="http://www.w3.org/2000/svg" xmlns:xlink="http://www.w3.org/1999/xlink">
    <!-- Generator: sketchtool 53.1 (72631) - https://sketchapp.com -->
    <title>8B9C38A1-7B50-4D38-95F2-5422814499F2</title>
    <desc>Created with sketchtool.</desc>
    <g id="Overnight" stroke="none" stroke-width="1" fill="none" fill-rule="evenodd">
        <g id="Overnight-mobile-R3V3" transform="translate(-112.000000, -5058.000000)">
            <g id="Group-10" transform="translate(-107.000000, 624.000000)">
                <g id="footer" transform="translate(107.000000, 4126.000000)">
                    <g id="social" transform="translate(112.000000, 307.000000)">
                        <g id="facebook" transform="translate(0.000000, 1.000000)">
                            <path d="M30.0842008,31.9652324 C31.0545792,31.9652324 31.8414826,31.1784525 31.8414826,30.2077035 L31.8414826,1.88090811 C31.8414826,0.910159073 31.0545792,0.123502703 30.0842008,0.123502703 L1.75740541,0.123502703 C0.786656371,0.123502703 0,0.910159073 0,1.88090811 L0,30.2077035 C0,31.1782054 0.786532819,31.9652324 1.75740541,31.9652324 L30.0842008,31.9652324 Z" id="Fill-1" fill="#AAAAAA"></path>
                            <path d="M21.9701869,31.9652324 L21.9701869,19.6343598 L26.1090595,19.6343598 L26.7287969,14.8288 L21.9701869,14.8288 L21.9701869,11.7607537 C21.9701869,10.3694332 22.3565344,9.42129421 24.3515305,9.42129421 L26.8963336,9.42018224 L26.8963336,5.12205097 C26.4562409,5.06348726 24.9456927,4.93276911 23.1881637,4.93276911 C19.5194069,4.93276911 17.0075923,7.1722749 17.0075923,11.2848309 L17.0075923,14.8288 L12.8580942,14.8288 L12.8580942,19.6343598 L17.0075923,19.6343598 L17.0075923,31.9652324 L21.9701869,31.9652324 Z" id="Fill-4" fill="#FFFFFF"></path>
                        </g>
                    </g>
                </g>
            </g>
        </g>
    </g>
</svg>