<?xml version="1.0" encoding="UTF-8"?>
<!DOCTYPE svg PUBLIC "-//W3C//DTD SVG 1.1//EN" "http://www.w3.org/Graphics/SVG/1.1/DTD/svg11.dtd">
<!-- Creator: CorelDRAW 2019 (64-Bit) -->
<svg xmlns="http://www.w3.org/2000/svg" xml:space="preserve" width="8.42mm" height="8.42mm" version="1.1" style="shape-rendering:geometricPrecision; text-rendering:geometricPrecision; image-rendering:optimizeQuality; fill-rule:evenodd; clip-rule:evenodd"
viewBox="0 0 842 842"
 xmlns:xlink="http://www.w3.org/1999/xlink">
 <defs>
  <style type="text/css">
   <![CDATA[
    .fil0 {fill:#FF0080}
   ]]>
  </style>
 </defs>
 <g id="Capa_x0020_1">
  <metadata id="CorelCorpID_0Corel-Layer"/>
  <path class="fil0" d="M418.67 2.33c232.51,0 421,188.49 421,421 0,232.51 -188.49,421 -421,421 -232.51,0 -421,-188.49 -421,-421 0,-232.51 188.49,-421 421,-421zm64.4 158.14c-71.36,0 -120.23,43.58 -120.23,123.59l0 68.96 -80.68 0 0 93.5 80.68 0 0 239.95 96.51 0 0 -239.95 80.52 0 12.04 -93.5 -92.56 0 0 -59.7c0,-27.06 7.52,-45.53 46.32,-45.53l49.49 0 0 -83.65c-8.55,-1.15 -37.91,-3.67 -72.09,-3.67z"/>
 </g>
</svg>
