<?xml version="1.0" encoding="UTF-8"?>
<!DOCTYPE svg PUBLIC "-//W3C//DTD SVG 1.1//EN" "http://www.w3.org/Graphics/SVG/1.1/DTD/svg11.dtd">
<!-- Creator: CorelDRAW 2019 (64-Bit) -->
<svg xmlns="http://www.w3.org/2000/svg" xml:space="preserve" width="8.42mm" height="8.42mm" version="1.1" style="shape-rendering:geometricPrecision; text-rendering:geometricPrecision; image-rendering:optimizeQuality; fill-rule:evenodd; clip-rule:evenodd"
viewBox="0 0 842 842"
 xmlns:xlink="http://www.w3.org/1999/xlink">
 <defs>
  <style type="text/css">
   <![CDATA[
    .fil0 {fill:#FF0080}
   ]]>
  </style>
 </defs>
 <g id="Capa_x0020_1">
  <metadata id="CorelCorpID_0Corel-Layer"/>
  <path class="fil0" d="M418.67 2.33c232.51,0 421,188.49 421,421 0,232.51 -188.49,421 -421,421 -232.51,0 -421,-188.49 -421,-421 0,-232.51 188.49,-421 421,-421zm179.32 620.19c49.65,-45.86 78.28,-113.33 78.28,-193.35 0,-21.61 -1.76,-37.38 -5.55,-53.74l-246.8 0 0 97.55 144.87 0c-2.92,24.24 -18.69,60.75 -53.74,85.28 -22.2,15.48 -51.99,26.29 -91.13,26.29 -69.51,0 -128.5,-45.86 -149.53,-109.23 -5.55,-16.36 -8.76,-33.88 -8.76,-51.99 0,-18.11 3.21,-35.63 8.47,-51.99 21.32,-63.37 80.31,-109.23 149.82,-109.23 49.37,0 82.66,21.32 101.65,39.14l74.18 -72.43c-45.56,-42.35 -104.86,-68.35 -175.83,-68.35 -102.8,0 -191.59,59 -234.81,144.87 -17.82,35.63 -28.04,75.64 -28.04,117.99 0,42.35 10.22,82.36 28.04,117.99 43.22,85.87 132.01,144.87 234.81,144.87 70.97,0 130.56,-23.37 174.07,-63.67z"/>
 </g>
</svg>
