<?xml version="1.0" encoding="UTF-8"?>
<!DOCTYPE svg PUBLIC "-//W3C//DTD SVG 1.1//EN" "http://www.w3.org/Graphics/SVG/1.1/DTD/svg11.dtd">
<!-- Creator: CorelDRAW 2019 (64-Bit) -->
<svg xmlns="http://www.w3.org/2000/svg" xml:space="preserve" width="8.42mm" height="8.42mm" version="1.1" style="shape-rendering:geometricPrecision; text-rendering:geometricPrecision; image-rendering:optimizeQuality; fill-rule:evenodd; clip-rule:evenodd"
viewBox="0 0 842 842"
 xmlns:xlink="http://www.w3.org/1999/xlink">
 <defs>
  <style type="text/css">
   <![CDATA[
    .fil0 {fill:#AAAAAA}
   ]]>
  </style>
 </defs>
 <g id="Capa_x0020_1">
  <metadata id="CorelCorpID_0Corel-Layer"/>
  <path class="fil0" d="M711.75 742.35c81.14,-73.44 127.92,-181.49 127.92,-309.66 0,-34.62 -2.87,-59.88 -9.07,-86.08l-403.34 0 0 156.24 236.75 0c-4.77,38.83 -30.54,97.3 -87.82,136.59 -36.28,24.79 -84.97,42.1 -148.93,42.1 -113.6,0 -210.02,-73.44 -244.39,-174.95 -9.07,-26.19 -14.32,-54.26 -14.32,-83.26 0,-29 5.25,-57.07 13.84,-83.26 34.85,-101.51 131.27,-174.95 244.87,-174.95 80.67,0 135.08,34.14 166.11,62.68l121.24 -116.01c-74.46,-67.83 -171.36,-109.46 -287.35,-109.46 -168.02,0 -313.12,94.49 -383.77,232.02 -29.11,57.07 -45.82,121.15 -45.82,188.98 0,67.83 16.71,131.91 45.82,188.98 70.65,137.53 215.75,232.02 383.77,232.02 115.99,0 213.36,-37.42 284.49,-101.98z"/>
 </g>
</svg>
