<?xml version="1.0" encoding="UTF-8"?>
<!DOCTYPE svg PUBLIC "-//W3C//DTD SVG 1.1//EN" "http://www.w3.org/Graphics/SVG/1.1/DTD/svg11.dtd">
<!-- Creator: CorelDRAW 2019 (64-Bit Versión de evaluación) -->
<svg xmlns="http://www.w3.org/2000/svg" xml:space="preserve" width="260mm" height="69.903mm" version="1.1" style="shape-rendering:geometricPrecision; text-rendering:geometricPrecision; image-rendering:optimizeQuality; fill-rule:evenodd; clip-rule:evenodd"
viewBox="0 0 26000 6990.3"
 xmlns:xlink="http://www.w3.org/1999/xlink"
 xmlns:xodm="http://www.corel.com/coreldraw/odm/2003">
 <defs>
  <style type="text/css">
   <![CDATA[
    .fil0 {fill:#FF0080}
   ]]>
  </style>
 </defs>
 <g id="Capa_x0020_1">
  <metadata id="CorelCorpID_0Corel-Layer"/>
  <path class="fil0" d="M919.53 3535.78c245.67,0 444.82,199.15 444.82,444.83 0,245.68 -199.15,444.83 -444.82,444.83 -245.68,0 -444.83,-199.15 -444.83,-444.83 0,-245.68 199.15,-444.83 444.83,-444.83zm24110.12 0c245.68,0 444.83,199.15 444.83,444.83 0,245.68 -199.15,444.83 -444.83,444.83 -245.67,0 -444.82,-199.15 -444.82,-444.83 0,-245.68 199.15,-444.83 444.82,-444.83zm-10332.91 0c245.68,0 444.83,199.15 444.83,444.83 0,245.68 -199.15,444.83 -444.83,444.83 -245.68,0 -444.82,-199.15 -444.82,-444.83 0,-245.68 199.14,-444.83 444.82,-444.83zm3444.31 0c245.67,0 444.82,199.15 444.82,444.83 0,245.68 -199.15,444.83 -444.82,444.83 -245.68,0 -444.83,-199.15 -444.83,-444.83 0,-245.68 199.15,-444.83 444.83,-444.83zm-10332.92 0c245.68,0 444.83,199.15 444.83,444.83 0,245.68 -199.15,444.83 -444.83,444.83 -245.67,0 -444.82,-199.15 -444.82,-444.83 0,-245.68 199.15,-444.83 444.82,-444.83zm13777.22 0c245.68,0 444.83,199.15 444.83,444.83 0,245.68 -199.15,444.83 -444.83,444.83 -245.68,0 -444.83,-199.15 -444.83,-444.83 0,-245.68 199.15,-444.83 444.83,-444.83zm-10332.91 0c245.68,0 444.82,199.15 444.82,444.83 0,245.68 -199.14,444.83 -444.82,444.83 -245.68,0 -444.83,-199.15 -444.83,-444.83 0,-245.68 199.15,-444.83 444.83,-444.83zm-6888.61 0c245.68,0 444.83,199.15 444.83,444.83 0,245.68 -199.15,444.83 -444.83,444.83 -245.68,0 -444.83,-199.15 -444.83,-444.83 0,-245.68 199.15,-444.83 444.83,-444.83zm18943.67 0c245.68,0 444.83,199.15 444.83,444.83 0,245.68 -199.15,444.83 -444.83,444.83 -245.68,0 -444.83,-199.15 -444.83,-444.83 0,-245.68 199.15,-444.83 444.83,-444.83zm-10332.91 0c245.68,0 444.83,199.15 444.83,444.83 0,245.68 -199.15,444.83 -444.83,444.83 -245.68,0 -444.83,-199.15 -444.83,-444.83 0,-245.68 199.15,-444.83 444.83,-444.83zm3444.3 0c245.68,0 444.83,199.15 444.83,444.83 0,245.68 -199.15,444.83 -444.83,444.83 -245.67,0 -444.82,-199.15 -444.82,-444.83 0,-245.68 199.15,-444.83 444.82,-444.83zm-10332.91 0c245.68,0 444.83,199.15 444.83,444.83 0,245.68 -199.15,444.83 -444.83,444.83 -245.67,0 -444.82,-199.15 -444.82,-444.83 0,-245.68 199.15,-444.83 444.82,-444.83zm13777.22 0c245.67,0 444.82,199.15 444.82,444.83 0,245.68 -199.15,444.83 -444.82,444.83 -245.68,0 -444.83,-199.15 -444.83,-444.83 0,-245.68 199.15,-444.83 444.83,-444.83zm-10332.91 0c245.67,0 444.82,199.15 444.82,444.83 0,245.68 -199.15,444.83 -444.82,444.83 -245.68,0 -444.83,-199.15 -444.83,-444.83 0,-245.68 199.15,-444.83 444.83,-444.83zm-6888.61 0c245.68,0 444.83,199.15 444.83,444.83 0,245.68 -199.15,444.83 -444.83,444.83 -245.68,0 -444.83,-199.15 -444.83,-444.83 0,-245.68 199.15,-444.83 444.83,-444.83z"/>
 </g>
</svg>
