<?xml version="1.0" encoding="UTF-8"?>
<!DOCTYPE svg PUBLIC "-//W3C//DTD SVG 1.1//EN" "http://www.w3.org/Graphics/SVG/1.1/DTD/svg11.dtd">
<!-- Creator: CorelDRAW 2019 (64-Bit) -->
<svg xmlns="http://www.w3.org/2000/svg" xml:space="preserve" width="320mm" height="200mm" version="1.1" style="shape-rendering:geometricPrecision; text-rendering:geometricPrecision; image-rendering:optimizeQuality; fill-rule:evenodd; clip-rule:evenodd"
viewBox="0 0 32000 20000"
 xmlns:xlink="http://www.w3.org/1999/xlink"
 xmlns:xodm="http://www.corel.com/coreldraw/odm/2003">
 <defs>
  <style type="text/css">
   <![CDATA[
    .str0 {stroke:#B7B7B7;stroke-width:20;stroke-miterlimit:22.9256}
    .fil3 {fill:none}
    .fil4 {fill:black}
    .fil0 {fill:#E8E8E8}
    .fil2 {fill:white}
    .fil1 {fill:white}
   ]]>
  </style>
 </defs>
 <g id="Capa_x0020_1">
  <metadata id="CorelCorpID_0Corel-Layer"/>
  <g id="_1850945665472">
   <rect class="fil0" x="-2" y="7.59" width="32000" height="20000"/>
   <rect class="fil1" x="1158.88" y="421.22" width="6958.15" height="3862.07"/>
   <rect class="fil1" x="1158.88" y="4283.29" width="6958.15" height="3862.07"/>
   <rect class="fil1" x="8117.03" y="421.22" width="6958.15" height="3862.07"/>
   <rect class="fil1" x="8117.03" y="4283.29" width="6958.15" height="3862.07"/>
   <rect class="fil1" x="15075.17" y="421.22" width="6958.15" height="3862.07"/>
   <rect class="fil1" x="15075.17" y="4283.29" width="6958.15" height="3862.07"/>
   <rect class="fil2" x="1294.15" y="8938.48" width="5073.44" height="703.77"/>
   <rect class="fil2" x="8433.83" y="8938.48" width="5073.44" height="703.77"/>
   <rect class="fil2" x="15781.47" y="8938.48" width="5073.44" height="703.77"/>
   <rect class="fil2" x="1294.15" y="10317.79" width="2785.97" height="703.77"/>
   <rect class="fil2" x="1294.15" y="12122.63" width="8383.36" height="703.77"/>
   <rect class="fil2" x="1294.15" y="13447.1" width="20167.32" height="703.77"/>
   <rect class="fil2" x="8433.83" y="10317.79" width="2785.97" height="703.77"/>
   <rect class="fil2" x="15781.47" y="10317.79" width="2785.97" height="703.77"/>
   <rect class="fil2" x="1294.15" y="14800.53" width="25522.07" height="4275.87"/>
   <rect class="fil2" x="29173" y="11283.26" width="1940.87" height="7793.12"/>
   <rect class="fil1" x="25282.26" y="421.23" width="5831.61" height="7724.14"/>
   <path class="fil3 str0" d="M8117.03 421.24l0 7724.13m6958.14 -7724.13l0 7724.13m-13916.29 -3862.06l20874.44 0"/>
   <g>
    <path class="fil4" d="M26043.28 2716.85c0,90.96 23.37,159.56 29.99,238.7 -38.27,-18.27 -47.45,-28.91 -86.88,2.67 -101.78,81.55 97.66,521.47 176.66,639.01 33.41,49.71 60.02,89.43 98.71,140.5 45.03,59.45 67.04,85.82 114.91,139.29 232.07,259.23 342.69,243.31 461.62,540.26 196.83,491.41 -31.89,665.26 230.84,1292.03 82.67,197.23 274.64,452.29 440.42,561.36 505.66,332.69 997.55,254.66 1502.75,-77.72 96.5,-63.48 195.99,-147.89 273.47,-235.14 71.23,-80.21 257.94,-287.08 71.34,-287.08 -35.46,0 -119.22,141.3 -213.67,234.98 -88.81,88.08 -135.45,132.58 -244.9,203.9 -197.09,128.43 -422.3,207.34 -663.51,235.37 -494.68,57.47 -888.45,-303.62 -1058.74,-727.37 -115.24,-286.78 -108.27,-401.58 -112.77,-782.91 -2.78,-235.09 -113.33,-553.64 -218.75,-692.41 -73.34,-96.54 -147.36,-136.29 -235.33,-213.42 -194.36,-170.41 -506.18,-587.48 -506.18,-853.97l30.49 59.17c10.03,21.02 18.89,39.24 29.44,60.22 19.49,38.73 38.84,81.57 60.51,118.83 18.07,31.08 48.53,77.12 72.24,107.14 282.53,357.62 662.37,526.82 780.43,894.41 66.48,206.98 57.3,580.3 166.49,580.3 112.2,0 45.49,-164.73 27.46,-295.86 -16.93,-123.07 -37.21,-234.14 -74.11,-343.99 -64.4,-191.74 -145.95,-256.2 -248.68,-379.16 -139.58,-167.06 -367.71,-300.25 -538.32,-523.64 -406.03,-531.64 -246.43,-1173.95 318.81,-1475.9 496.01,-264.97 1645.37,9.66 2122.78,434.14 76.12,67.69 205.7,178.03 266.39,257.1 31.07,40.47 52.47,55.01 85.55,93.92 536.74,631.36 649.19,1361.32 649.19,2188.63 0,492.41 -241.65,1262.86 -565.81,1585.33 -55.75,55.46 -135.45,112.4 -201.7,157.38 -212.84,144.48 -225.9,82.42 -192.15,226.55 105.11,0 145.75,-31.86 259.31,-114.98 81.13,-59.38 145.7,-105.09 222.85,-166.16 198.67,-157.25 455.73,-760.87 519.68,-1019.58 203.24,-822.19 82.81,-1804.3 -296.99,-2533.46 -197.85,-379.84 -702.12,-872.69 -1104.51,-1064.3 -431.72,-205.57 -878.11,-278.28 -1399.7,-278.28 -480.81,0 -1049.63,495.98 -1049.63,1074.14z"/>
    <path class="fil4" d="M27437.79 4715.94c0,281.42 -93.97,456.78 54.94,721.1 34.13,60.59 111.59,172.13 158.25,215.53 70.21,65.31 138.99,106.84 226.46,147.65 90.49,42.22 189.51,74.01 295.09,49.54 54.91,-228.21 -147.24,-18.51 -408.85,-279.49 -332.21,-331.42 -190.94,-491.43 -190.94,-824.49 0,-372.05 -113.56,-641.19 -278.3,-856.92l-190.96 -227.74c-90.05,-107.17 -211.94,-192.69 -347.11,-370.75 -79.98,-105.36 -155.11,-229.03 -197.5,-370.4 -50.12,-167.17 -36.31,-316.26 50.74,-445.26 339.91,-503.74 1192.78,-391.72 1652.94,-160.72 111.32,55.88 222.4,112.63 323.53,185.34 170.43,122.54 146.3,111.13 272.35,251.19 500.97,556.62 640.95,1408.48 480.19,2155.89 -42.58,197.99 -111.29,353.31 -201.69,515.42 -313.77,562.63 -1094.31,813.2 -1566.73,221.59 -326.72,-409.15 -152.61,-733.54 -312.35,-733.54 -169.33,0 7.52,569.57 237.55,852.72 66.58,81.95 196.11,190.68 297.01,241.56 765.88,386.18 1507.04,-266.93 1666.09,-1023.23 189.26,-900 52.54,-1617.18 -497.51,-2317.53 -499.71,-636.23 -1912.16,-970.76 -2401.79,-343.28 -227.75,291.86 -200.25,579.97 -20.62,888.57 284.82,489.29 899.21,737.85 899.21,1507.25z"/>
    <path class="fil4" d="M27617.72 3507.54l-14.99 -14.92 -15 -14.92 -14.99 -14.92 -15 -14.92 -14.99 -14.92 -15 -14.92 -14.99 -14.91 -14.99 -14.92 -15 -14.92 -14.99 -14.92c-37.35,-24.88 -61.89,-40.73 -74.98,-89.51 -132.15,-88.05 -647.79,-706.6 15.31,-701.89 378.28,2.69 682.25,184.27 953.09,394.83 297.99,231.67 519.41,698.17 584.83,1089.02 38.11,227.77 31.75,408.23 21.29,635.38 -2.43,52.75 -12.83,87.46 -22.81,143.04 -4.6,25.57 -13.96,42.03 -3.91,76.33l41.64 49.09c106.17,-8.79 95.98,-96.37 111.83,-202.03 12.07,-80.47 15.47,-221.29 21.42,-292.95 11.28,-135.8 -30.99,-414.31 -61.85,-560.69 -69.94,-331.78 -229.28,-613.02 -414.01,-841.24 -501.22,-619.22 -1527.92,-819.65 -1680.92,-414.7 -59.9,158.56 52.46,386.4 116.9,478.91 75.71,108.7 324.85,360.73 448.58,493.57 148.87,159.83 318.7,387.1 319,622.53 0.52,402.24 -157.08,796.59 107.65,1056.51 109.55,107.56 304.72,154.08 481.97,68.24 152.31,-73.78 167.51,-108.58 253.75,-210.02 37.29,-43.87 40.77,-47.89 40.77,-123.54 -105.61,-55.6 -91.11,-23.59 -169.37,70.19 -183.5,219.9 -468.85,244.54 -580.7,4.74 -145.21,-311.33 86.46,-728.63 -36.32,-1097.68 -82.9,-249.17 -303.34,-424.86 -323.22,-498.94z"/>
    <path class="fil4" d="M28067.56 3790.99c-63.85,-42.54 -39.4,-33.59 -119.95,-14.92 -31.38,133.98 85.93,191.25 138.96,398.81 69.54,272.18 -161.94,851.63 119.19,956.25 99.55,37.05 263,-20.22 315.17,-83.47 27.21,-33 26.46,-65.51 26.46,-122.86 -34.18,-7.92 -34.48,-11.56 -74.97,-14.92 66.74,-125.49 56.91,-304.96 44.12,-476.53 -11,-147.42 -45.78,-351.16 -75.08,-492.21 -77.5,-373.17 -250.64,-932.45 -654.69,-1034.47 -220.52,-55.68 -305.51,63.06 -227.45,256.16 108.77,269.08 420.19,252.14 508.24,628.16z"/>
    <path class="fil4" d="M27632.72 4193.79c168.98,0 -60.1,-393.66 -115.52,-466.89 -132.21,-174.7 -203.85,-216.97 -274.34,-308.88 -186.92,-243.69 -748.86,-623.2 -345.35,-910.49 170.66,-121.51 414.63,-89.05 660.23,-89.05 330.25,0 592.58,132.38 805.05,258.26 140.3,83.13 193.24,122.43 308.43,230.2 14.56,13.63 17.8,15.21 31.78,28.06l15.42 14.49c8.96,8.9 13.14,14.09 21.59,23.28 23.74,25.82 42.93,43.36 64.63,69.97 30.23,37.05 82.75,136.59 132.62,136.59 44.87,0 68.1,-45.12 66.13,-71.22 -12.59,-166.59 -749,-823.9 -1445.65,-823.9l-374.86 0c-247.02,0 -472.11,156.94 -538.32,329.71 -109.25,285.05 176.35,543.55 324.83,703.22l314.43 343.58c310.14,317.69 246.35,533.07 348.9,533.07z"/>
    <path class="fil4" d="M26013.29 4283.3c0,202.39 171.38,-114.63 315.22,193.62 121.87,261.17 69.74,895.96 95.13,1097.86 9.63,76.61 47.03,179.03 71.39,243.24 155.14,408.88 612.37,828 987.74,1001.45 277.05,128.02 557.71,193.94 884.69,193.94 94.94,0 224.92,-15.1 224.92,-104.43 0,-102.61 -130.2,-29.84 -179.94,-29.84 -720.68,0 -1312.32,-344.6 -1649.57,-850.2 -82.64,-123.89 -194.31,-360.71 -215.68,-515.06 -0.12,-0.85 -4.48,-690.28 -27.88,-853.83 -84.82,-592.56 -506.02,-490.8 -506.02,-376.75z"/>
    <path class="fil4" d="M27392.8 3268.84c37.34,24.88 61.88,40.73 74.98,89.51l14.99 14.92 15 14.92 14.99 14.92 14.99 14.91 15 14.92 14.99 14.92 15 14.92 14.99 14.92 15 14.92 14.99 14.92c216.35,144.13 135.69,198.69 284.9,164.1 23.42,-87.84 22.53,-59.77 -93.71,-175.29 -134.7,-133.85 -341.76,-319.92 -410.28,-486.96 -34.55,-84.22 -63.09,-155.07 27.77,-199.4 60.97,-29.75 169.45,-43.83 262.88,-30.1 160,23.5 290.86,110.41 402.17,196.65 90.29,69.95 217.48,226.31 271.15,326.97 195.95,367.47 290.44,776.04 289.82,1203.55l-16.49 283.92c9.77,104.71 131.48,113.53 137.26,-14.48 15.32,-339.54 29.2,-459.72 -41.94,-825.3 -65.45,-336.36 -172,-620.62 -344.36,-850.88 -508.42,-679.24 -1350.66,-537.56 -1109.47,-29.97 18.34,38.61 35.67,64.57 54.4,95.05 36.18,58.88 48.93,58.54 60.98,103.44z"/>
    <path class="fil4" d="M26103.26 3940.18c24.07,45.26 21.11,42.44 61.51,73.07 31.5,23.88 57.14,39.49 88.34,61.29 187.81,131.17 363.15,256.71 413.99,483.23l104.42 1089.6c103.01,558.94 697.6,1082.58 1296.04,1082.58 198.91,0 299.9,27.27 299.9,-89.51 0,-57.55 -47.78,-46.47 -103.67,-46.04 -50.37,0.38 -100.94,1.19 -151.44,1.48 -330.08,1.95 -556.82,-112.53 -792.43,-300.64 -387.24,-309.17 -458.15,-730.99 -481.95,-1221.22 -33.72,-694.86 11.57,-732.08 -569.56,-1148.97 -35.75,-25.64 -53.14,-47.41 -105.17,-59.47 -27.98,24.19 -41.3,39.47 -59.98,74.6z"/>
    <path class="fil4" d="M29623.68 2504.67c17.68,64.59 143.95,202.91 218.1,326.71 72.53,121.09 127.67,232 185.95,366.99 122.34,283.34 264.28,739.91 274.54,1084.45 16.6,557.9 -2.3,933.19 -129.51,1483.37 -22.26,96.27 -70.26,188 39.05,188 68.69,0 80.92,-106.59 95.97,-173.05 65.98,-291.42 130.42,-701.21 128.85,-1005.62l0.37 -253.1c-5.41,-92.76 7.98,-188.35 -4.35,-279.81 -69.13,-512.81 -75.94,-604.51 -289.38,-1114.45 -56.5,-134.99 -120.11,-255 -192.53,-375.35 -45.32,-75.33 -171.89,-283.2 -263.75,-304.49l-63.31 56.35z"/>
    <path class="fil4" d="M28682.35 7162.59c2.99,-1.96 7.17,-9.16 8.88,-6.04 1.79,3.25 7.63,-4.39 10.09,-4.91 20.15,-4.27 19.61,-3.97 41.01,-3.97l83.37 -36.39c134.17,-50.41 147.16,-63.11 271.88,-132.3 327.2,-181.54 642.55,-430.06 786.56,-783.89 129.81,-318.94 159.37,-476.52 210.36,-835.01 18.9,-132.83 101.12,-850.44 42.33,-972.35 -68.16,-32.54 -74.35,-0.54 -119.95,29.84 0,741.52 -68.38,1539.69 -419.55,1999.4 -157.72,206.48 -543.57,460.04 -788.41,558.26 -72.65,29.14 -121.81,45.08 -209.87,59.73 -31.43,5.23 -98.05,6.68 -119.85,15.62 -18.34,7.53 -31.84,21.19 -38.46,36.86 -21.42,50.7 -11.38,22.97 1.69,45.32 1.08,2.29 -19.53,54.04 102.99,45.15 58.8,-4.27 59.66,-15.32 136.93,-15.32z"/>
    <path class="fil4" d="M27062.92 1135.48c0,42.13 34.41,57.56 59.98,74.59 67.74,-15.7 118.63,-47.65 203.67,-65.9 248.84,-53.4 469.41,-31.37 714.86,17.31 565.33,112.13 1008.53,366 1402.03,753.36 111.55,109.82 271.36,313.78 360.08,447.44 73.01,110 138.36,76.55 138.36,-18.39 0,-35.79 -188.05,-278.74 -221.55,-316.65 -277.66,-314.2 -520.14,-544.72 -918.05,-742.58 -409.34,-203.54 -852.4,-328.32 -1334.04,-297.89 -102.89,6.5 -405.34,60.64 -405.34,148.71z"/>
    <path class="fil4" d="M28982.24 3343.43c0,108.52 224.92,444.91 224.92,865.28 0,566.42 -20.3,1150.87 -539.57,1417.5 -389.73,200.11 -469.34,13.23 -420.09,223.55 332.57,77.08 695.79,-233.62 851.5,-420.9 215.88,-259.65 243.11,-817.27 243.11,-1205.23 0,-224.23 -50.12,-394.93 -106.86,-565.02 -28.84,-86.49 -57.83,-160.52 -94.24,-249.37 -13.85,-33.8 -34.38,-86.64 -60.23,-106.19 -37.23,-28.16 -98.54,-14.45 -98.54,40.38z"/>
    <path class="fil4" d="M26882.98 1344.34c0,109.06 39.5,90.71 149.65,59.81 218.64,-61.33 433.38,-65.39 657.93,-42.77 561.44,56.57 960.44,264.55 1366.75,579.6 92.16,71.46 165.41,148.93 257.05,221.66 60.59,48.1 132.36,141.46 185.87,174.4 79.33,48.83 39.68,6.85 96.79,6.85 34.41,-142.97 -34.52,-113.74 -221.11,-302.17 -48.23,-48.71 -80.38,-67.15 -127.52,-111.82 -519.59,-492.34 -1252.94,-757.71 -1989.45,-703.82 -64.71,4.73 -375.96,44.38 -375.96,118.26z"/>
    <path class="fil4" d="M28742.33 7147.67c-3,1.97 -7.18,2.03 -8.89,6.05 -1.79,4.19 -7.63,4.38 -10.09,4.9 -20.15,4.28 -19.61,3.97 -41,3.97l-120.52 29.28c-363.57,47.76 -390.05,20.41 -704.9,-0.29 -69.94,-4.6 -157.44,0.99 -130.32,83.69 11.83,36.07 12.83,31.93 48.59,43.7 138.49,45.58 664.11,30.56 838.69,-0.71 571.97,-102.46 996.43,-361.42 1340.9,-814.18l170.26 -278.88c31.88,-58.72 26.17,-60.4 11.78,-121.83 -55.96,-14.77 -63.97,-29.92 -103.74,15.07 -6.21,7.02 -47.76,78.3 -56.23,94.3 -137.73,259.89 -333.87,482.24 -574.81,651.44 -139.34,97.86 -486.91,279.66 -659.72,283.49z"/>
    <path class="fil4" d="M28667.35 1941.08c0,52.18 162.04,122.43 260.96,187.93 319.54,211.56 546.39,530.28 719.03,865.99 28.56,55.53 43.86,103.41 69.48,154.65 137.72,275.52 228.98,547.44 276.89,858.33 15.77,102.3 -16.23,170.89 83.14,170.89 178.13,0 -86.65,-730.14 -122.1,-818.39 -197.79,-492.4 -365.96,-807.04 -728.63,-1169.73l-273 -205.77c-23.08,-13.62 -285.77,-207.41 -285.77,-43.9z"/>
    <path class="fil4" d="M28982.24 4954.64c-119.88,9.93 -79.87,91.66 -183.8,234.85 -144.13,198.57 -253.89,276.73 -493.62,344.42 -258.53,73 -638.6,-174.66 -569.84,-641.63 17.49,-118.8 48.47,-246.81 48.73,-370.3 0.25,-116.91 -27.2,-312.69 -150.99,-253.6 -39.39,81.68 3.85,107.58 13.4,180.61 40.35,308.63 -202.69,580.55 76.31,968.39 54.42,75.66 170.35,172.6 265.33,213.41 136.06,58.47 231.52,63.13 380.15,25.47 289.59,-73.36 502.54,-279.5 625.69,-541.34 39.7,-84.4 58.24,-94.59 -11.36,-160.28z"/>
    <path class="fil4" d="M27827.65 837.11c0,117.25 94.08,48.8 364.04,100.28 354.22,67.55 645.91,215.49 915.24,432.08 92.58,74.46 155.52,126.82 238.93,209.84 69.74,69.41 165.39,152.98 223.41,225.29 37.77,47.08 68.68,77.55 102.85,121.44 32.74,42.05 63.68,79.51 100.18,124.11 70.69,86.34 138.13,213.75 214.59,234.06 109.48,-72.94 64.67,-88.12 -119.8,-328.37l-303.67 -354.29c-448.56,-441.22 -945.68,-824.12 -1675.79,-824.12 -35.1,0 -59.98,24.76 -59.98,59.68z"/>
    <path class="fil4" d="M26178.23 5432.04c0,385.85 190.71,656.33 406.96,922.86 131.73,162.36 277.16,285.46 443.31,409.3 88.04,65.61 165.13,115.19 263.96,170.02 188.27,104.46 408.21,208.31 640.15,213.45 142.47,-211.67 -115.84,-62.59 -524.15,-299.02 -98.98,-57.31 -193.06,-113.46 -285.52,-178.41 -44.95,-31.57 -79.91,-61.83 -126.55,-97.88 -130.93,-101.2 -242.85,-212.99 -344.88,-343.12 -400.37,-510.68 -312.12,-717.09 -347.65,-803.28 -30.09,-73 -125.63,-59.46 -125.63,6.08z"/>
    <path class="fil4" d="M26148.24 1956c0,48.59 35.65,59.68 74.98,59.68 53.19,0 61.66,-75.67 188.15,-170.85 70.74,-53.23 152.37,-95.06 233.61,-125.62 261.75,-98.48 367.52,-83.1 616.97,-117.18 114.67,-15.67 547.97,21.87 676.75,49.54 101.05,21.72 195.99,47.64 279.01,80.46 194.46,76.88 329.68,207.2 329.68,44.95 0,-127.4 -664.55,-292.32 -899.19,-298.86 -220.28,-6.13 -352.02,-15.1 -569.59,1.18 -136.81,10.23 -365.4,73.02 -480.72,118.46 -130.84,51.57 -449.65,219.04 -449.65,358.24z"/>
    <path class="fil4" d="M29417.09 3343.43c0,117.67 379.47,544.79 190.87,1622.09 -16.11,92.07 -39.32,178.26 -68.81,259.75 -43.02,118.85 -193.77,296.28 -32.09,296.28 92.51,0 205.18,-375.85 223.14,-479.17 61.3,-352.58 102.13,-950.84 -11.23,-1283.2l-151.12 -386.72c-32.04,-64.45 -29.64,-56.51 -90.78,-88.7l-24.65 20.23c-23.29,21.93 -35.33,21.15 -35.33,39.44z"/>
    <path class="fil4" d="M28112.55 7654.91c-143.71,0 -298.11,-18.17 -417.14,-47.45 -254.59,-62.63 -407.57,-198.99 -407.57,-42.06 0,120.05 617.82,223.77 779.72,223.77 316.24,0 616.75,-46.52 897.94,-136 57.86,-18.41 196.68,-44.74 196.68,-117.61 0,-175.5 -371.42,119.35 -1049.63,119.35z"/>
    <path class="fil4" d="M28307.48 7446.05c-149.52,0 -273.25,-28.05 -329.88,-14.92 -39.09,166.92 132.44,149.18 329.88,149.18 242.49,0 432.14,-54.69 612.65,-121.47 145.15,-53.7 481.96,-168.08 481.96,-296.25 0,-50.63 -26.32,-44.75 -74.97,-44.75l-214.9 114.4c-231.95,116.32 -520.77,213.81 -804.74,213.81z"/>
    <path class="fil4" d="M28667.35 6521.09c0,220.79 424.84,-85.4 551.19,-212.46l348.7 -443.75c52.65,-100.52 190.51,-343.33 44.78,-343.33 -81.19,0 -99.68,229.11 -269.68,447.79 -35.66,45.88 -73.14,95.34 -116.22,137.98 -113.14,111.99 -246.69,253.05 -390.97,327.11 -63.08,32.37 -167.8,18.07 -167.8,86.66z"/>
    <path class="fil4" d="M25998.29 4611.51c0,147.22 108.95,46.29 179.94,29.84 43.37,185.21 59.98,177.57 59.98,432.64 0,111.77 -54.21,179.02 74.97,179.02 65.66,0 59.98,-139.68 59.98,-193.94 0,-94.64 -10.43,-271.52 -29.17,-343.94 -93.43,-361 -345.7,-148.79 -345.7,-103.62z"/>
    <path class="fil4" d="M26253.2 6192.88c-20.12,85.93 10.55,124.07 56.65,197.26 56.72,90.03 528.15,599.36 528.15,324.9 0,-47.78 -98.8,-76.26 -144.07,-110.29l-256.93 -266.52c-77.54,-107.28 -54.95,-195.1 -183.8,-145.35z"/>
    <path class="fil4" d="M26849.66 6860.91c26.62,102.76 220.71,201.46 303.12,242.12 58.91,29.07 120.77,62.67 180.21,89.23 26.4,11.8 65.2,28.21 96.15,39.88 89.46,33.73 42.66,5.05 98.61,5.05 40.94,-170.14 -54.31,-96.56 -299.28,-239.3l-315.5 -193.34 -63.31 56.36z"/>
    <path class="fil4" d="M30016.88 2567.66c-35.17,146.13 25.66,87.06 118.04,330.11 83.78,220.43 42.73,195.36 76.89,341.23 131.54,30.49 119.95,-17.33 119.95,-104.43 0,-109.75 -60.53,-267.24 -99.76,-348.3 -80.52,-166.39 -107.87,-260.03 -215.12,-218.61z"/>
    <path class="fil4" d="M27122.9 7311.78c0,91.95 144.7,104.21 241.65,132.54 62.57,18.28 388.12,131.19 388.12,1.73 0,-59.51 -59.42,-68.33 -117.26,-77.27 -292.17,-45.19 -512.51,-187.71 -512.51,-57z"/>
   </g>
  </g>
 </g>
</svg>
