<?xml version="1.0" encoding="UTF-8"?>
<!DOCTYPE svg PUBLIC "-//W3C//DTD SVG 1.1//EN" "http://www.w3.org/Graphics/SVG/1.1/DTD/svg11.dtd">
<!-- Creator: CorelDRAW 2019 (64-Bit) -->
<svg xmlns="http://www.w3.org/2000/svg" xml:space="preserve" width="320mm" height="200mm" version="1.1" style="shape-rendering:geometricPrecision; text-rendering:geometricPrecision; image-rendering:optimizeQuality; fill-rule:evenodd; clip-rule:evenodd"
viewBox="0 0 32000 20000"
 xmlns:xlink="http://www.w3.org/1999/xlink"
 xmlns:xodm="http://www.corel.com/coreldraw/odm/2003">
 <defs>
  <style type="text/css">
   <![CDATA[
    .str0 {stroke:#B7B7B7;stroke-width:20;stroke-miterlimit:22.9256}
    .fil4 {fill:none}
    .fil1 {fill:#B7B7B7}
    .fil0 {fill:#E8E8E8}
    .fil3 {fill:whitesmoke}
    .fil2 {fill:white}
   ]]>
  </style>
 </defs>
 <g id="Capa_x0020_1">
  <metadata id="CorelCorpID_0Corel-Layer"/>
  <g id="_1850998752864">
   <rect class="fil0" x="-2" y="7.6" width="32000" height="20000"/>
   <rect class="fil1" x="-1.95" y="7.61" width="32000" height="2586.8"/>
   <g>
    <rect class="fil2" x="10822.65" y="3897.39" width="7451.61" height="1103.45"/>
    <rect class="fil2" x="24824.76" y="3897.39" width="4872.02" height="1754"/>
    <rect class="fil2" x="24824.76" y="5651.39" width="4872.02" height="1754"/>
    <rect class="fil2" x="24824.76" y="7405.39" width="4872.02" height="1754"/>
    <rect class="fil2" x="10822.65" y="5311.18" width="7590.26" height="1040.75"/>
    <rect class="fil2" x="10822.65" y="6656.02" width="9011.26" height="1103.45"/>
    <rect class="fil2" x="10822.65" y="8035.33" width="5857.32" height="862.06"/>
    <rect class="fil2" x="10822.65" y="9138.78" width="5857.32" height="862.06"/>
    <rect class="fil2" x="10822.65" y="11121.53" width="7679.49" height="678.67"/>
    <rect class="fil2" x="10822.65" y="13587.05" width="7679.49" height="678.67"/>
    <rect class="fil2" x="10822.65" y="12000.84" width="7679.49" height="678.67"/>
    <rect class="fil2" x="10822.65" y="14466.36" width="7679.49" height="678.67"/>
    <rect class="fil2" x="1294.15" y="15469.49" width="29407.73" height="703.77"/>
    <rect class="fil2" x="1294.15" y="16656.02" width="29407.73" height="703.77"/>
    <rect class="fil2" x="1294.15" y="18000.85" width="29407.73" height="703.77"/>
   </g>
   <polygon class="fil3" points="1294.13,14731.3 9473.58,14731.28 9473.58,3897.39 1294.13,3897.39 "/>
   <path id="Fill-4" class="fil1" d="M1725.77 13333.56c245.75,-96.46 980.56,-394.41 1242.09,-486.99l3.47 -1.29c374.76,-132.59 721.96,-256.18 916.14,-351.35 453.89,-223.87 378.23,-1043.28 0,-1564.74 -302.17,-745.34 -680.45,-1947.02 -680.45,-2346.6 0,-123.17 69.12,-236.43 130.77,-337.17 50.7,-82.25 95.74,-156.27 95.74,-221.76 -13.55,-40.47 -29.74,-78.36 -46.76,-118.84 -78.72,-183.86 -179.75,-421.54 -179.75,-1191.85 0,-1147.49 1589.11,-1594.42 2269.5,-1594.42 680.4,0 2269.55,446.93 2269.55,1594.42 0,770.31 -101.03,1007.99 -179.75,1191.85 -17.07,40.48 -33.21,78.37 -46.8,118.84 0,65.49 45.04,139.51 95.79,221.76 61.64,100.74 130.76,214 130.76,337.17 0,399.58 -378.28,1601.26 -680.44,2346.6 -378.24,521.46 -453.89,1340.87 0,1564.74 194.17,95.17 541.37,218.76 916.55,351.35l3.06 1.29c261.52,92.58 856.85,503.09 1096.48,611.69 142.41,74.62 391.87,176.43 391.87,220.74l0 1052.29 -8179.45 0 0 -1121.1c0,-87.18 263.06,-167.72 431.63,-276.63z"/>
   <path id="Fill-4_0" class="fil1" d="M27562.84 13198.05c67.69,-26.56 270.07,-108.63 342.1,-134.13l0.96 -0.35c103.22,-36.52 198.85,-70.56 252.33,-96.77 125.01,-61.66 104.17,-287.35 0,-430.97 -83.23,-205.28 -187.41,-536.25 -187.41,-646.3 0,-33.93 19.03,-65.12 36.01,-92.87 13.97,-22.65 26.37,-43.04 26.37,-61.08 -3.73,-11.15 -8.19,-21.58 -12.88,-32.73 -21.68,-50.64 -49.5,-116.1 -49.5,-328.26 0,-316.05 437.67,-439.14 625.07,-439.14 187.4,0 625.09,123.09 625.09,439.14 0,212.16 -27.83,277.62 -49.51,328.26 -4.7,11.15 -9.15,21.58 -12.89,32.73 0,18.04 12.4,38.43 26.38,61.08 16.98,27.75 36.02,58.94 36.02,92.87 0,110.05 -104.19,441.02 -187.41,646.3 -104.18,143.62 -125.02,369.31 0,430.97 53.48,26.21 149.1,60.25 252.44,96.77l0.84 0.35c72.03,25.5 235.99,138.57 302,168.48 39.22,20.55 107.93,48.59 107.93,60.79l0 289.83 -2252.82 0 0 -308.78c0,-24.01 72.46,-46.19 118.88,-76.19z"/>
   <path class="fil4 str0" d="M24824.76 7405.41l4872.02 0m-4872.02 -1754.02l4872.02 0"/>
  </g>
 </g>
</svg>
