<?xml version="1.0" encoding="UTF-8"?>
<!DOCTYPE svg PUBLIC "-//W3C//DTD SVG 1.1//EN" "http://www.w3.org/Graphics/SVG/1.1/DTD/svg11.dtd">
<!-- Creator: CorelDRAW 2019 (64-Bit) -->
<svg xmlns="http://www.w3.org/2000/svg" xml:space="preserve" width="8.42mm" height="8.42mm" version="1.1" style="shape-rendering:geometricPrecision; text-rendering:geometricPrecision; image-rendering:optimizeQuality; fill-rule:evenodd; clip-rule:evenodd"
viewBox="0 0 842 842"
 xmlns:xlink="http://www.w3.org/1999/xlink">
 <defs>
  <style type="text/css">
   <![CDATA[
    .fil0 {fill:#FF0080}
   ]]>
  </style>
 </defs>
 <g id="Capa_x0020_1">
  <metadata id="CorelCorpID_0Corel-Layer"/>
  <path class="fil0" d="M418.67 2.33c232.51,0 421,188.49 421,421 0,232.51 -188.49,421 -421,421 -232.51,0 -421,-188.49 -421,-421 0,-232.51 188.49,-421 421,-421zm-104.73 204.76c-29.63,0 -57.59,11.65 -78.73,32.78 -21.13,21.13 -32.78,49.09 -32.78,78.73l0 209.46c0,29.64 11.65,57.6 32.78,78.74 21.14,21.14 49.1,32.78 78.73,32.78l209.47 0c29.63,0 57.6,-11.64 78.73,-32.78 21.14,-21.14 32.78,-49.1 32.78,-78.74l0 -209.46c0,-29.64 -11.64,-57.6 -32.78,-78.73 -21.13,-21.13 -49.1,-32.78 -78.73,-32.78l-209.47 0zm274.47 75.56c0,19.37 -15.7,35.06 -35.06,35.06 -19.38,0 -35.07,-15.69 -35.07,-35.06 0,-19.37 15.69,-35.06 35.07,-35.06 19.36,0 35.06,15.69 35.06,35.06zm-169.73 272.18c-35.12,0 -68.15,-13.67 -92.99,-38.5 -24.84,-24.85 -38.52,-57.87 -38.52,-92.99 0,-35.12 13.68,-68.15 38.52,-92.99 24.84,-24.84 57.87,-38.52 92.99,-38.52 35.12,0 68.14,13.68 92.99,38.52 24.83,24.84 38.5,57.87 38.5,92.99 0,35.12 -13.67,68.14 -38.5,92.99 -24.85,24.83 -57.87,38.5 -92.99,38.5zm104.73 131.5l-209.47 0c-42.12,0 -81.83,-16.49 -111.79,-46.47 -29.98,-29.96 -46.48,-69.68 -46.48,-111.8l0 -209.46c0,-42.12 16.5,-81.83 46.48,-111.79 29.96,-29.98 69.67,-46.48 111.79,-46.48l209.47 0c42.11,0 81.83,16.5 111.79,46.48 29.98,29.96 46.47,69.67 46.47,111.79l0 209.46c0,42.12 -16.49,81.84 -46.47,111.8 -29.96,29.98 -69.68,46.47 -111.79,46.47z"/>
  <path class="fil0" d="M418.68 339.66c-46.14,0 -83.68,37.54 -83.68,83.68 0,46.14 37.54,83.68 83.68,83.68 46.14,0 83.68,-37.54 83.68,-83.68 0,-46.14 -37.54,-83.68 -83.68,-83.68z"/>
 </g>
</svg>
