<?xml version="1.0" encoding="UTF-8"?>
<svg width="32px" height="33px" viewBox="0 0 32 33" version="1.1" xmlns="http://www.w3.org/2000/svg" xmlns:xlink="http://www.w3.org/1999/xlink">
    <!-- Generator: sketchtool 53.1 (72631) - https://sketchapp.com -->
    <title>398933C1-A3CE-484D-A07D-1B633872C921</title>
    <desc>Created with sketchtool.</desc>
    <g id="Overnight" stroke="none" stroke-width="1" fill="none" fill-rule="evenodd">
        <g id="Overnight-mobile-R3V3" transform="translate(-172.000000, -5057.000000)" fill="#AAAAAA">
            <g id="Group-10" transform="translate(-107.000000, 624.000000)">
                <g id="footer" transform="translate(107.000000, 4126.000000)">
                    <g id="social" transform="translate(112.000000, 307.000000)">
                        <g id="instagram" transform="translate(60.000000, 0.000000)">
                            <path d="M9.62834286,3.41571429 C7.82548571,3.41571429 6.12434286,4.12428571 4.83862857,5.41 C3.55291429,6.69571429 2.84434286,8.39685714 2.84434286,10.1997143 L2.84434286,22.9431429 C2.84434286,24.746 3.55291429,26.4471429 4.83862857,27.7328571 C6.12434286,29.0191429 7.82548571,29.7271429 9.62834286,29.7271429 L22.3717714,29.7271429 C24.1746286,29.7271429 25.8757714,29.0191429 27.1614857,27.7328571 C28.4477714,26.4471429 29.1557714,24.746 29.1557714,22.9431429 L29.1557714,10.1997143 C29.1557714,8.39685714 28.4477714,6.69571429 27.1614857,5.41 C25.8757714,4.12428571 24.1746286,3.41571429 22.3717714,3.41571429 L9.62834286,3.41571429 Z M22.3717714,32.5711429 L9.62834286,32.5711429 C7.06548571,32.5711429 4.65005714,31.5677143 2.8272,29.7442857 C1.00377143,27.9214286 -0.000228571429,25.5054286 -0.000228571429,22.9431429 L-0.000228571429,10.1997143 C-0.000228571429,7.63685714 1.00377143,5.22142857 2.8272,3.39857143 C4.65005714,1.57514286 7.06548571,0.571142857 9.62834286,0.571142857 L22.3717714,0.571142857 C24.9340571,0.571142857 27.3500571,1.57514286 29.1729143,3.39857143 C30.9963429,5.22142857 31.9997714,7.63685714 31.9997714,10.1997143 L31.9997714,22.9431429 C31.9997714,25.5054286 30.9963429,27.9214286 29.1729143,29.7442857 C27.3500571,31.5677143 24.9340571,32.5711429 22.3717714,32.5711429 L22.3717714,32.5711429 Z" id="Fill-1"></path>
                            <path d="M16.0002922,11.480732 C13.1932644,11.480732 10.9093034,13.764693 10.9093034,16.5717208 C10.9093034,19.379333 13.1932644,21.6627096 16.0002922,21.6627096 C18.8079044,21.6627096 21.091281,19.379333 21.091281,16.5717208 C21.091281,13.764693 18.8079044,11.480732 16.0002922,11.480732 M16.0002922,24.5714286 C13.8636081,24.5714286 11.8543303,23.7397816 10.3429886,22.2290244 C8.83223144,20.7176827 8,18.7084049 8,16.5717208 C8,14.4350367 8.83223144,12.4257588 10.3429886,10.9144172 C11.8543303,9.40366001 13.8636081,8.57142857 16.0002922,8.57142857 C18.1369763,8.57142857 20.1462542,9.40366001 21.6575958,10.9144172 C23.168353,12.4257588 24,14.4350367 24,16.5717208 C24,18.7084049 23.168353,20.7176827 21.6575958,22.2290244 C20.1462542,23.7397816 18.1369763,24.5714286 16.0002922,24.5714286" id="Fill-4"></path>
                            <path d="M26.3264571,8.01257143 C26.3264571,9.19085714 25.3710286,10.1457143 24.1933143,10.1457143 C23.0144571,10.1457143 22.0596,9.19085714 22.0596,8.01257143 C22.0596,6.83428571 23.0144571,5.87942857 24.1933143,5.87942857 C25.3710286,5.87942857 26.3264571,6.83428571 26.3264571,8.01257143" id="Fill-6"></path>
                        </g>
                    </g>
                </g>
            </g>
        </g>
    </g>
</svg>