<?xml version="1.0" encoding="UTF-8"?>
<!DOCTYPE svg PUBLIC "-//W3C//DTD SVG 1.1//EN" "http://www.w3.org/Graphics/SVG/1.1/DTD/svg11.dtd">
<!-- Creator: CorelDRAW 2019 (64-Bit) -->
<svg xmlns="http://www.w3.org/2000/svg" xml:space="preserve" width="23.72mm" height="23.47mm" version="1.1" style="shape-rendering:geometricPrecision; text-rendering:geometricPrecision; image-rendering:optimizeQuality; fill-rule:evenodd; clip-rule:evenodd"
viewBox="0 0 2372 2347"
 xmlns:xlink="http://www.w3.org/1999/xlink"
 xmlns:xodm="http://www.corel.com/coreldraw/odm/2003">
 <defs>
  <style type="text/css">
   <![CDATA[
    .fil1 {fill:#B7B7B7}
    .fil0 {fill:whitesmoke}
   ]]>
  </style>
 </defs>
 <g id="Capa_x0020_1">
  <metadata id="CorelCorpID_0Corel-Layer"/>
  <rect class="fil0" x="-7.84" y="3.37" width="2372.04" height="2347.49"/>
  <path id="Fill-4" class="fil1" d="M389.57 2047.99c52.98,-20.9 211.39,-85.46 267.77,-105.52l0.75 -0.28c80.79,-28.73 155.64,-55.51 197.5,-76.13 97.85,-48.51 81.54,-226.06 0,-339.05 -65.14,-161.5 -146.69,-421.88 -146.69,-508.46 0,-26.69 14.9,-51.23 28.19,-73.06 10.93,-17.82 20.64,-33.86 20.64,-48.05 -2.92,-8.77 -6.41,-16.98 -10.08,-25.75 -16.97,-39.84 -38.75,-91.34 -38.75,-258.25 0,-248.64 342.58,-345.48 489.26,-345.48 146.68,0 489.27,96.84 489.27,345.48 0,166.91 -21.78,218.41 -38.75,258.25 -3.68,8.77 -7.16,16.98 -10.09,25.75 0,14.19 9.71,30.23 20.65,48.05 13.29,21.83 28.19,46.37 28.19,73.06 0,86.58 -81.55,346.96 -146.69,508.46 -81.54,112.99 -97.85,290.54 0,339.05 41.86,20.62 116.71,47.4 197.59,76.13l0.66 0.28c56.38,20.06 184.72,109.01 236.38,132.54 153.66,80.93 243.19,157.71 388.83,275.85l-2372.04 0c204.06,-190.94 113.77,-118.62 397.41,-302.87z"/>
 </g>
</svg>
