<?xml version="1.0" encoding="UTF-8"?>
<svg width="90px" height="89px" viewBox="0 0 90 89" version="1.1" xmlns="http://www.w3.org/2000/svg" xmlns:xlink="http://www.w3.org/1999/xlink">
    <!-- Generator: Sketch 45.2 (43514) - http://www.bohemiancoding.com/sketch -->
    <title>Group 2</title>
    <desc>Created with Sketch.</desc>
    <defs>
        <polygon id="path-1" points="0 0.891986962 0 89.6161372 89.6487164 89.6161372 89.6487164 0.891986962"></polygon>
    </defs>
    <g id="Page-1" stroke="none" stroke-width="1" fill="none" fill-rule="evenodd">
        <g id="1" transform="translate(-158.000000, -151.000000)">
            <g id="Group-17" transform="translate(37.000000, 150.000000)">
                <g id="Group-2" transform="translate(121.000000, 0.000000)">
                    <mask id="mask-2" fill="white">
                        <use xlink:href="#path-1"></use>
                    </mask>
                    <g id="Clip-2"></g>
                    <path d="M44.8261397,89.7241502 C20.0703954,89.7241502 0,69.860745 0,45.360312 C0,20.8598789 20.0703954,1 44.8261397,1 C69.581884,1 89.6522794,20.8598789 89.6522794,45.360312 C89.6522794,69.860745 69.581884,89.7241502 44.8261397,89.7241502 Z" id="Fill-1" fill="#F5F5F5" mask="url(#mask-2)"></path>
                    <path d="M15,78.2668372 C23.1521507,85.33294 33.8589744,89.6166992 45.581254,89.6166992 C56.7548312,89.6166992 67.0020276,85.724918 74.9902801,79.2432823 M15,78.2668372 C17.0024076,77.4769556 23.0096306,75.0473646 25.1403063,74.2892194 L25.1688103,74.2786406 C28.2223038,73.1925535 31.0513281,72.1805177 32.6333014,71.4012149 C36.3316985,69.5675613 35.715299,62.8570944 32.6333014,58.5867973 C30.1712664,52.4828466 27.0892689,42.6410635 27.0892689,39.3686971 C27.0892689,38.3601877 27.6522234,37.4327821 28.1546068,36.607638 C28.5679151,35.9341229 28.9349044,35.3276067 28.9349044,34.7916157 C28.8244513,34.4601475 28.6926202,34.1498369 28.5536631,33.8183687 C27.9123226,32.312657 27.0892689,30.3661632 27.0892689,24.0576896 C27.0892689,14.6602149 40.0372215,10.9999603 45.581254,10.9999603 C51.1252866,10.9999603 64.0732392,14.6602149 64.0732392,24.0576896 C64.0732392,30.3661632 63.2501855,32.312657 62.608845,33.8183687 C62.4698879,34.1498369 62.3380568,34.4601475 62.2276037,34.7916157 C62.2276037,35.3276067 62.594593,35.9341229 63.0079013,36.607638 C63.5102847,37.4327821 64.0732392,38.3601877 64.0732392,39.3686971 C64.0732392,42.6410635 60.9912417,52.4828466 58.5292067,58.5867973 C55.4472091,62.8570944 54.8308096,69.5675613 58.5292067,71.4012149 C60.1111799,72.1805177 62.9402043,73.1925535 65.9972608,74.2786406 L66.0222018,74.2892194 C68.1528775,75.0473646 72.9878725,78.4678338 74.9902801,79.2506628" id="Fill-4" fill="#B7B7B7" mask="url(#mask-2)"></path>
                </g>
            </g>
        </g>
    </g>
</svg>